<?xml version="1.0" encoding="UTF-8" standalone="no"?>
<svg
   width="16"
   height="16"
   version="1.1"
   id="svg4744"
   sodipodi:docname="xapp-temperature-symbolic.svg"
   inkscape:version="1.2.2 (b0a8486541, 2022-12-01)"
   xmlns:inkscape="http://www.inkscape.org/namespaces/inkscape"
   xmlns:sodipodi="http://sodipodi.sourceforge.net/DTD/sodipodi-0.dtd"
   xmlns="http://www.w3.org/2000/svg"
   xmlns:svg="http://www.w3.org/2000/svg">
  <defs
     id="defs4748" />
  <sodipodi:namedview
     id="namedview4746"
     pagecolor="#ffffff"
     bordercolor="#666666"
     borderopacity="1.0"
     inkscape:showpageshadow="2"
     inkscape:pageopacity="0.0"
     inkscape:pagecheckerboard="0"
     inkscape:deskcolor="#d1d1d1"
     showgrid="false"
     inkscape:zoom="64.1875"
     inkscape:cx="5.1567673"
     inkscape:cy="7.9922103"
     inkscape:window-width="2560"
     inkscape:window-height="1348"
     inkscape:window-x="2560"
     inkscape:window-y="0"
     inkscape:window-maximized="1"
     inkscape:current-layer="svg4744" />
  <path
     fill="#222222"
     d="M 8,0 C 6.338,0 5,1.338 5,3 V 9 C 5,9.116 5.0066667,9.23 5.02,9.342 4.3655313,10.072925 4.0025196,11.018891 4,12 c 0,2.209139 1.790861,4 4,4 2.209139,0 4,-1.790861 4,-4 -6e-6,-0.983604 -0.362422,-1.932723 -1.018,-2.666 C 10.994207,9.223088 11.000216,9.1115814 11,9 V 3 C 11,1.338 9.662,0 8,0 m 0,2 c 0.554,0 1,0.446 1,1 0.019751,0.00591 0,7.27 0,7.27 0.1125898,0.06617 0.2184284,0.1432 0.316,0.23 l 0.082,0.082 c 0.065214,0.06345 0.1260215,0.131272 0.182,0.203 0.028041,0.03804 0.054724,0.07707 0.08,0.117 0.046086,0.069 0.087834,0.14081 0.125,0.215 0.022669,0.0442 0.043684,0.08923 0.063,0.135 0.098216,0.237263 0.1498226,0.491221 0.152,0.748 0,1.104569 -0.8954305,2 -2,2 -1.1045695,0 -2,-0.895431 -2,-2 0.00357,-0.251256 0.054459,-0.49959 0.15,-0.732 0.021125,-0.05264 0.044479,-0.104349 0.07,-0.155 0.035903,-0.07065 0.075974,-0.139105 0.12,-0.205 0.025891,-0.04064 0.053242,-0.08033 0.082,-0.119 0.060194,-0.07774 0.1260394,-0.150942 0.197,-0.219 l 0.06,-0.06 C 6.778015,10.421889 6.8855437,10.343838 7,10.277 V 3 C 7,2.446 7.446,2 8,2 m 0,9 c -0.5522847,0 -1,0.447715 -1,1 0,0.552285 0.4477153,1 1,1 0.5522847,0 1,-0.447715 1,-1 0,-0.552285 -0.4477153,-1 -1,-1"
     id="path4742"
     sodipodi:nodetypes="cssccscccscccccccccccsccccccccsccsssc" />
</svg>
