<?xml version="1.0" encoding="UTF-8" standalone="no"?>
<svg
   xmlns:osb="http://www.openswatchbook.org/uri/2009/osb"
   xmlns:dc="http://purl.org/dc/elements/1.1/"
   xmlns:cc="http://creativecommons.org/ns#"
   xmlns:rdf="http://www.w3.org/1999/02/22-rdf-syntax-ns#"
   xmlns:svg="http://www.w3.org/2000/svg"
   xmlns="http://www.w3.org/2000/svg"
   xmlns:xlink="http://www.w3.org/1999/xlink"
   xmlns:sodipodi="http://sodipodi.sourceforge.net/DTD/sodipodi-0.dtd"
   xmlns:inkscape="http://www.inkscape.org/namespaces/inkscape"
   inkscape:version="0.92.5 (2060ec1f9f, 2020-04-08)"
   sodipodi:docname="xapp-favorites.svg"
   id="svg4"
   version="1.1"
   width="96"
   height="96"
   style="enable-background:new">
  <metadata
     id="metadata10">
    <rdf:RDF>
      <cc:Work
         rdf:about="">
        <dc:format>image/svg+xml</dc:format>
        <dc:type
           rdf:resource="http://purl.org/dc/dcmitype/StillImage" />
        <dc:title></dc:title>
      </cc:Work>
    </rdf:RDF>
  </metadata>
  <defs
     id="defs8">
    <linearGradient
       x1="48"
       y1="90"
       x2="48"
       gradientUnits="userSpaceOnUse"
       y2="5.9877"
       id="linearGradient6452">
      <stop
         id="stop6448"
         offset="0"
         stop-color="#b4b4b4" />
      <stop
         id="stop6450"
         offset="1"
         stop-color="#e6e6e6" />
    </linearGradient>
    <linearGradient
       id="linearGradient4984"
       osb:paint="solid">
      <stop
         style="stop-color:#ffffff;stop-opacity:1;"
         offset="0"
         id="stop4982" />
    </linearGradient>
    <linearGradient
       id="linearGradient7722"
       osb:paint="gradient">
      <stop
         style="stop-color:#000000;stop-opacity:1;"
         offset="0"
         id="stop7718" />
      <stop
         style="stop-color:#000000;stop-opacity:0;"
         offset="1"
         id="stop7720" />
    </linearGradient>
    <filter
       style="color-interpolation-filters:sRGB"
       inkscape:label="Feather"
       id="filter1726">
      <feGaussianBlur
         stdDeviation="5"
         result="blur"
         id="feGaussianBlur1718" />
      <feComposite
         in="SourceGraphic"
         in2="blur"
         operator="atop"
         result="composite1"
         id="feComposite1720" />
      <feComposite
         in2="composite1"
         operator="in"
         result="composite2"
         id="feComposite1722" />
      <feComposite
         in2="composite2"
         operator="in"
         result="composite3"
         id="feComposite1724" />
    </filter>
    <filter
       style="color-interpolation-filters:sRGB"
       inkscape:label="Drop Shadow"
       id="filter1795">
      <feFlood
         flood-opacity="0.498039"
         flood-color="rgb(0,0,0)"
         result="flood"
         id="feFlood1785" />
      <feComposite
         in="flood"
         in2="SourceGraphic"
         operator="in"
         result="composite1"
         id="feComposite1787" />
      <feGaussianBlur
         in="composite1"
         stdDeviation="1"
         result="blur"
         id="feGaussianBlur1789" />
      <feOffset
         dx="1"
         dy="1"
         result="offset"
         id="feOffset1791" />
      <feComposite
         in="SourceGraphic"
         in2="offset"
         operator="over"
         result="composite2"
         id="feComposite1793" />
    </filter>
    <filter
       style="color-interpolation-filters:sRGB"
       inkscape:label="Drop Shadow"
       id="filter1819">
      <feFlood
         flood-opacity="0.498039"
         flood-color="rgb(0,0,0)"
         result="flood"
         id="feFlood1809" />
      <feComposite
         in="flood"
         in2="SourceGraphic"
         operator="in"
         result="composite1"
         id="feComposite1811" />
      <feGaussianBlur
         in="composite1"
         stdDeviation="1"
         result="blur"
         id="feGaussianBlur1813" />
      <feOffset
         dx="1"
         dy="1"
         result="offset"
         id="feOffset1815" />
      <feComposite
         in="SourceGraphic"
         in2="offset"
         operator="over"
         result="composite2"
         id="feComposite1817" />
    </filter>
    <filter
       style="color-interpolation-filters:sRGB"
       inkscape:label="Drop Shadow"
       id="filter1720">
      <feFlood
         flood-opacity="0.498039"
         flood-color="rgb(0,0,0)"
         result="flood"
         id="feFlood1710" />
      <feComposite
         in="flood"
         in2="SourceGraphic"
         operator="in"
         result="composite1"
         id="feComposite1712" />
      <feGaussianBlur
         in="composite1"
         stdDeviation="1"
         result="blur"
         id="feGaussianBlur1714" />
      <feOffset
         dx="1"
         dy="1"
         result="offset"
         id="feOffset1716" />
      <feComposite
         in="SourceGraphic"
         in2="offset"
         operator="over"
         result="composite2"
         id="feComposite1718" />
    </filter>
    <filter
       style="color-interpolation-filters:sRGB"
       inkscape:label="Drop Shadow"
       id="filter1740">
      <feFlood
         flood-opacity="0.498039"
         flood-color="rgb(0,0,0)"
         result="flood"
         id="feFlood1730" />
      <feComposite
         in="flood"
         in2="SourceGraphic"
         operator="in"
         result="composite1"
         id="feComposite1732" />
      <feGaussianBlur
         in="composite1"
         stdDeviation="1"
         result="blur"
         id="feGaussianBlur1734" />
      <feOffset
         dx="1"
         dy="1"
         result="offset"
         id="feOffset1736" />
      <feComposite
         in="SourceGraphic"
         in2="offset"
         operator="over"
         result="composite2"
         id="feComposite1738" />
    </filter>
    <linearGradient
       id="g"
       y2="90.238998"
       xlink:href="#a"
       gradientUnits="userSpaceOnUse"
       x2="32.250999"
       gradientTransform="matrix(1.0238,0,0,-1.0119,-1.1429,98.071)"
       y1="6.1317"
       x1="32.250999" />
    <linearGradient
       id="a"
       y2="7.0165"
       gradientUnits="userSpaceOnUse"
       x2="45.448002"
       gradientTransform="matrix(1.0059,0,0,0.99417,100,0)"
       y1="92.540001"
       x1="45.448002">
      <stop
         offset="0"
         id="stop3979" />
      <stop
         stop-opacity=".58824"
         offset="1"
         id="stop3981" />
    </linearGradient>
    <linearGradient
       id="h"
       y2="5.9995999"
       xlink:href="#a"
       gradientUnits="userSpaceOnUse"
       x2="32.250999"
       gradientTransform="matrix(1.0238,0,0,1.0119,-1.1429,0.929)"
       y1="90"
       x1="32.250999" />
    <linearGradient
       id="i"
       y2="6"
       xlink:href="#a"
       gradientUnits="userSpaceOnUse"
       x2="32.250999"
       gradientTransform="translate(0,1)"
       y1="90"
       x1="32.250999" />
    <radialGradient
       id="e"
       gradientUnits="userSpaceOnUse"
       cy="78.287003"
       cx="47.098"
       gradientTransform="matrix(1.383,-1.035e-8,0,1.3124,-18.038997,-24.219)"
       r="38.957001">
      <stop
         stop-color="#42394b"
         offset="0"
         id="stop4006" />
      <stop
         offset="1"
         id="stop4008" />
    </radialGradient>
    <filter
       style="color-interpolation-filters:sRGB"
       id="o"
       height="1.0908"
       width="1.3035001"
       y="-0.045378"
       x="-0.15174">
      <feGaussianBlur
         stdDeviation="1.1526305"
         id="feGaussianBlur3973" />
    </filter>
    <linearGradient
       id="b"
       y2="52.101002"
       xlink:href="#d"
       gradientUnits="userSpaceOnUse"
       x2="19.941999"
       gradientTransform="matrix(0,-0.65823,0.65616,0,-10.186,94.127)"
       y1="52.101002"
       x1="80.710999" />
    <linearGradient
       id="d"
       stop-color="#fff">
      <stop
         offset="0"
         id="stop3968" />
      <stop
         stop-opacity="0"
         offset="1"
         id="stop3970" />
    </linearGradient>
    <filter
       style="color-interpolation-filters:sRGB"
       id="p"
       height="1.3025"
       width="1.0888"
       y="-0.15126"
       x="-0.044411998">
      <feGaussianBlur
         stdDeviation="1.1526305"
         id="feGaussianBlur3976" />
    </filter>
    <linearGradient
       id="c"
       y2="52.101002"
       xlink:href="#d"
       gradientUnits="userSpaceOnUse"
       x2="19.941999"
       gradientTransform="matrix(0.65823,0,0,0.65616,2.8732,25.814)"
       y1="52.101002"
       x1="80.710999" />
    <linearGradient
       id="j"
       y2="5.9877"
       gradientUnits="userSpaceOnUse"
       x2="48"
       y1="90"
       x1="48">
      <stop
         stop-color="#b4b4b4"
         offset="0"
         id="stop3999" />
      <stop
         stop-color="#e6e6e6"
         offset="1"
         id="stop4001" />
    </linearGradient>
    <linearGradient
       id="m"
       stop-color="#fff"
       y2="63.893002"
       gradientUnits="userSpaceOnUse"
       x2="36.356998"
       y1="6"
       x1="36.356998">
      <stop
         offset="0"
         id="stop3994" />
      <stop
         stop-opacity="0"
         offset="1"
         id="stop3996" />
    </linearGradient>
    <linearGradient
       id="n"
       y2="83.294998"
       gradientUnits="userSpaceOnUse"
       x2="43.179001"
       gradientTransform="matrix(1.0294,0,0,1.0294,-1.4118,-1.4118)"
       y1="13"
       x1="43.179001">
      <stop
         stop-color="#919191"
         offset="0"
         id="stop3989" />
      <stop
         stop-color="#fdfdfd"
         offset="1"
         id="stop3991" />
    </linearGradient>
    <radialGradient
       id="f"
       stop-color="#fff"
       gradientUnits="userSpaceOnUse"
       cy="90.171997"
       cx="48"
       gradientTransform="matrix(1.1573,0,0,0.99591,-7.551,0.19713)"
       r="42">
      <stop
         offset="0"
         id="stop3984" />
      <stop
         stop-opacity="0"
         offset="1"
         id="stop3986" />
    </radialGradient>
    <linearGradient
       inkscape:collect="always"
       xlink:href="#a"
       id="linearGradient4912"
       gradientUnits="userSpaceOnUse"
       gradientTransform="matrix(1.0238,0,0,-1.0119,-1.1429,98.071)"
       x1="32.250999"
       y1="6.1317"
       x2="32.250999"
       y2="90.238998" />
    <linearGradient
       inkscape:collect="always"
       xlink:href="#a"
       id="linearGradient4914"
       gradientUnits="userSpaceOnUse"
       gradientTransform="matrix(1.0238,0,0,-1.0119,-1.1429,98.071)"
       x1="32.250999"
       y1="6.1317"
       x2="32.250999"
       y2="90.238998" />
    <linearGradient
       inkscape:collect="always"
       xlink:href="#a"
       id="linearGradient4916"
       gradientUnits="userSpaceOnUse"
       gradientTransform="matrix(1.0238,0,0,-1.0119,-1.1429,98.071)"
       x1="32.250999"
       y1="6.1317"
       x2="32.250999"
       y2="90.238998" />
    <radialGradient
       inkscape:collect="always"
       xlink:href="#linearGradient6452"
       id="radialGradient6446"
       cx="24.000002"
       cy="23.915552"
       fx="24.000002"
       fy="23.915552"
       r="23.37389"
       gradientTransform="matrix(0.50559953,-0.01484073,0.01430171,0.48723605,11.523578,12.619211)"
       gradientUnits="userSpaceOnUse" />
  </defs>
  <sodipodi:namedview
     pagecolor="#ffffff"
     bordercolor="#666666"
     borderopacity="1"
     objecttolerance="10"
     gridtolerance="10"
     guidetolerance="10"
     inkscape:pageopacity="0"
     inkscape:pageshadow="2"
     inkscape:window-width="1920"
     inkscape:window-height="989"
     id="namedview6"
     showgrid="false"
     inkscape:zoom="4.4283054"
     inkscape:cx="46.062124"
     inkscape:cy="35.733194"
     inkscape:window-x="0"
     inkscape:window-y="27"
     inkscape:window-maximized="1"
     inkscape:current-layer="svg4" />
  <ellipse
     style="opacity:1;fill:#ffffff;fill-opacity:1;fill-rule:evenodd;stroke:none;stroke-width:0.95995587;stroke-opacity:1;filter:url(#filter1819)"
     id="path1698"
     cx="-62.545948"
     cy="154.09407"
     rx="21"
     ry="20.501823" />
  <rect
     style="opacity:1;fill:#ffffff;fill-opacity:1;fill-rule:evenodd;stroke:none;stroke-opacity:1;filter:url(#filter1740)"
     id="rect1728"
     width="40"
     height="40"
     x="-129.49153"
     y="121.61999"
     rx="6"
     ry="6" />
  <path
     d="M 93.79561,48.452021 87.457596,61.312062 73.31126,63.424634 83.50758,73.437241 81.119287,87.5824 93.79561,80.877544 106.47046,87.5824 104.08364,73.437241 114.37167,63.424634 100.13303,61.312062 Z"
     id="path2-3"
     style="fill:none;fill-opacity:0.94117647;stroke:#000000;stroke-width:2.93992543;stroke-linejoin:round;stroke-miterlimit:4;stroke-dasharray:none;stroke-opacity:0"
     inkscape:connector-curvature="0"
     sodipodi:nodetypes="ccccccccccc" />
  <g
     style="fill:url(#g)"
     id="g4022">
    <path
       style="opacity:0.07999998;fill:url(#linearGradient4912)"
       inkscape:connector-curvature="0"
       d="M 12,95.031 C 6.4889,95.031 1.969,90.511 1.969,85 V 14 C 1.969,8.4889 6.4892,3.969 12,3.969 h 72 c 5.5111,0 10.031,4.5202 10.031,10.031 v 71 c 0,5.5111 -4.5202,10.031 -10.031,10.031 z"
       id="path4016" />
    <path
       style="opacity:0.1;fill:url(#linearGradient4914)"
       inkscape:connector-curvature="0"
       d="m 12,94.031 c -4.9716,0 -9.0312,-4.0596 -9.0312,-9.0312 v -71 C 2.9688,9.028 7.0284,4.9684 12,4.9684 h 72 c 4.9716,0 9.0312,4.0596 9.0312,9.0312 v 71 c 0,4.9716 -4.0596,9.0312 -9.0312,9.0312 H 12 Z"
       id="path4018" />
    <path
       style="opacity:0.2;fill:url(#linearGradient4916)"
       inkscape:connector-curvature="0"
       d="M 12,93 C 7.5909,93 4,89.409 4,85 V 14 C 4,9.5909 7.5909,6 12,6 h 72 c 4.4091,0 8,3.5909 8,8 v 71 c 0,4.4091 -3.5909,8 -8,8 z"
       id="path4020" />
  </g>
  <rect
     style="opacity:0.3;fill:url(#h)"
     rx="7"
     ry="7"
     height="85"
     width="86"
     y="6.9999986"
     x="4.9999986"
     id="rect4024" />
  <rect
     style="opacity:0.45;fill:url(#i)"
     rx="6"
     ry="6"
     height="84"
     width="84"
     y="6.9999986"
     x="5.9999986"
     id="rect4026" />
  <path
     inkscape:connector-curvature="0"
     style="opacity:0.15"
     d="m 19,13 c -3.2894,0 -6,2.7106 -6,6 v 58 c 0,3.2894 2.7106,6 6,6 h 58 c 3.2894,0 6,-2.7106 6,-6 V 19 c 0,-3.2894 -2.7106,-6 -6,-6 z m 0,4 h 58 c 1.1426,0 2,0.85741 2,2 v 58 c 0,1.1426 -0.85741,2 -2,2 H 19 c -1.1426,0 -2,-0.85741 -2,-2 V 19 c 0,-1.1426 0.85741,-2 2,-2 z"
     id="path4058" />
  <path
     inkscape:connector-curvature="0"
     style="opacity:0.3"
     d="m 17,14 c -1.662,0 -3,1.338 -3,3 v 62 c 0,1.662 1.338,3 3,3 h 62 c 1.662,0 3,-1.338 3,-3 V 17 c 0,-1.662 -1.338,-3 -3,-3 z m 0,1.9375 h 62 c 0.61816,0 1.0625,0.44434 1.0625,1.0625 v 62 c 0,0.61816 -0.44434,1.0625 -1.0625,1.0625 H 17 c -0.61816,0 -1.0625,-0.44434 -1.0625,-1.0625 V 17 c 0,-0.61816 0.44434,-1.0625 1.0625,-1.0625 z"
     id="path4060" />
  <path
     inkscape:connector-curvature="0"
     style="opacity:0.6"
     d="m 17,14 c -1.662,0 -3,1.338 -3,3 v 62 c 0,1.662 1.338,3 3,3 h 62 c 1.662,0 3,-1.338 3,-3 V 17 c 0,-1.662 -1.338,-3 -3,-3 z m 0,0.96875 h 62 c 1.1401,0 2.0312,0.89117 2.0312,2.0312 v 62 c 0,1.1401 -0.89117,2.0312 -2.0312,2.0312 H 17 c -1.1401,0 -2.0312,-0.89117 -2.0312,-2.0312 v -62 c 0,-1.1401 0.89117,-2.0312 2.0312,-2.0312 z"
     id="path4062" />
  <path
     inkscape:connector-curvature="0"
     style="fill:url(#j)"
     d="M 12,6 C 8.676,6 6,8.676 6,12 v 72 c 0,3.324 2.676,6 6,6 h 72 c 3.324,0 6,-2.676 6,-6 V 12 C 90,8.676 87.324,6 84,6 Z m 5,7 h 62 c 2.216,0 4,1.784 4,4 v 62 c 10e-7,2.216 -1.784,4 -4,4 H 17 c -2.216,10e-7 -4,-1.784 -4,-4 V 17 c 0,-2.216 1.784,-4 4,-4 z"
     id="path4064" />
  <path
     inkscape:connector-curvature="0"
     style="opacity:0.5;fill:url(#m)"
     d="M 12,6 C 8.676,6 6,8.676 6,12 v 72 c 0,0.33472 0.04135,0.6507 0.09375,0.96875 0.0487,0.2956 0.09704,0.59692 0.1875,0.875 0.0099,0.03038 0.02089,0.0636 0.03125,0.09375 0.09887,0.28777 0.23488,0.54745 0.375,0.8125 0.14459,0.27351 0.31562,0.53562 0.5,0.78125 0.18438,0.24564 0.37378,0.47347 0.59375,0.6875 0.43995,0.42806 0.94291,0.81453 1.5,1.0938 0.27854,0.13961 0.5734698,0.24695 0.875,0.34375 -0.2562002,-0.10022 -0.48671,-0.23627 -0.71875,-0.375 -0.0074,-0.0044 -0.02387,0.0045 -0.03125,0 -0.0319,-0.019 -0.0622,-0.042 -0.0937,-0.062 -0.1204,-0.077 -0.231,-0.164 -0.3437,-0.25 -0.1062,-0.081 -0.2133,-0.161 -0.3126,-0.25 -0.1778,-0.162 -0.3473,-0.346 -0.4999,-0.531 -0.1075,-0.131 -0.2183,-0.266 -0.3124,-0.407 -0.0251,-0.038 -0.0385,-0.086 -0.0626,-0.125 -0.0647,-0.103 -0.1302,-0.204 -0.1874,-0.312 -0.1011,-0.195 -0.2057,-0.416 -0.2813,-0.625 -0.008,-0.022 -0.0236,-0.041 -0.0313,-0.063 -0.0318,-0.092 -0.0358,-0.187 -0.0624,-0.281 -0.0304,-0.107 -0.0704,-0.203 -0.0938,-0.313 -0.0729,-0.341 -0.125,-0.698 -0.125,-1.062 v -72 c 0,-2.782 2.2182,-5 5,-5 h 72 c 2.7818,0 5,2.2182 5,5 v 72 c 0,0.3643 -0.05212,0.72099 -0.125,1.0625 -0.04415,0.20689 -0.08838,0.39766 -0.15625,0.59375 -0.0077,0.02195 -0.0233,0.04069 -0.03125,0.0625 -0.06274,0.17374 -0.13838,0.36745 -0.21875,0.53125 -0.04158,0.0828 -0.07904,0.16995 -0.125,0.25 -0.0546,0.09721 -0.12677,0.18835 -0.1875,0.28125 -0.09411,0.14096 -0.20492,0.276 -0.3125,0.40625 -0.14317,0.17445 -0.30314,0.347 -0.46875,0.5 -0.01117,0.0102 -0.01998,0.02115 -0.03125,0.03125 -0.13839,0.12556 -0.28509,0.23444 -0.4375,0.34375 -0.10257,0.07315 -0.20432,0.15336 -0.3125,0.21875 -0.0074,0.0045 -0.02384,-0.0044 -0.03125,0 -0.23204,0.13873 -0.46255,0.27478 -0.71875,0.375 0.30153,-0.0968 0.59646,-0.20414 0.875,-0.34375 0.55709,-0.27922 1.0601,-0.66569 1.5,-1.0938 0.21997,-0.21403 0.40937,-0.44186 0.59375,-0.6875 0.18438,-0.24564 0.35541,-0.50774 0.5,-0.78125 0.14012,-0.26505 0.27614,-0.52473 0.375,-0.8125 0.01041,-0.03078 0.02133,-0.06274 0.03125,-0.09375 0.09046,-0.27808 0.1388,-0.5794 0.1875,-0.875 0.053,-0.318 0.094,-0.634 0.094,-0.969 V 12 c 0,-3.324 -2.676,-6 -6,-6 h -72 z"
     id="path4066" />
  <path
     inkscape:connector-curvature="0"
     style="fill:url(#n)"
     d="m 17,12 c -2.7527,0 -5,2.2473 -5,5 v 62 c 0,2.7527 2.2473,5 5,5 h 62 c 2.7527,0 5,-2.2473 5,-5 V 17 c 0,-2.7527 -2.2473,-5 -5,-5 z m 0,2 h 62 c 1.6793,0 3,1.3207 3,3 v 62 c 10e-7,1.6793 -1.3207,3 -3,3 H 17 c -1.6793,0 -3,-1.3207 -3,-3 V 17 c 0,-1.6793 1.3207,-3 3,-3 z"
     id="path4068" />
  <path
     inkscape:connector-curvature="0"
     style="opacity:0.4;fill:url(#f)"
     d="M 12,90 C 8.676,90 6,87.324 6,84 V 12 c 0,-0.33472 0.04135,-0.6507 0.09375,-0.96875 0.0487,-0.2956 0.09704,-0.59692 0.1875,-0.875 0.0099,-0.03 0.0209,-0.063 0.0313,-0.094 0.0989,-0.2873 0.2349,-0.547 0.375,-0.812 0.1446,-0.2735 0.3156,-0.5356 0.5,-0.7812 0.1844,-0.2457 0.3738,-0.4735 0.5937,-0.6876 0.44,-0.428 0.943,-0.8145 1.5,-1.0937 0.2786,-0.1396 0.5734998,-0.2469 0.8748,-0.3437 -0.2560002,0.1002 -0.4865,0.2362 -0.7185,0.375 -0.0074,0.0044 -0.02387,-0.0045 -0.03125,0 -0.03193,0.0193 -0.06229,0.04251 -0.09375,0.0625 -0.1204,0.0767 -0.23102,0.16351 -0.34375,0.25 -0.10617,0.0808 -0.21328,0.16111 -0.3125,0.25 -0.1779,0.1614 -0.3474,0.3453 -0.5,0.5312 -0.1075,0.1303 -0.2183,0.2653 -0.3124,0.4063 -0.0251,0.0383 -0.0385,0.0858 -0.0626,0.125 -0.0647,0.103 -0.1302,0.2045 -0.1874,0.3124 -0.1011,0.1948 -0.2057,0.4158 -0.2813,0.625 -0.008,0.0219 -0.0236,0.0406 -0.0313,0.0626 -0.0318,0.0919 -0.0358,0.1868 -0.0624,0.2812 -0.0304,0.1066 -0.0704,0.203 -0.0938,0.3125 -0.0729,0.3415 -0.125,0.6985 -0.125,1.0625 v 72 c 0,2.7818 2.2182,5 5,5 h 72 c 2.7818,0 5,-2.2182 5,-5 v -72 c 0,-0.364 -0.052,-0.721 -0.125,-1.0625 -0.044,-0.2069 -0.088,-0.3977 -0.156,-0.5937 -0.008,-0.022 -0.024,-0.0407 -0.031,-0.0626 -0.063,-0.1737 -0.139,-0.3674 -0.219,-0.5312 -0.042,-0.0828 -0.079,-0.17 -0.125,-0.25 -0.055,-0.0972 -0.127,-0.1884 -0.188,-0.2812 -0.094,-0.141 -0.205,-0.276 -0.312,-0.4063 -0.143,-0.1745 -0.303,-0.347 -0.469,-0.5 -0.011,-0.0102 -0.02,-0.0211 -0.031,-0.0313 -0.139,-0.1255 -0.285,-0.2344 -0.438,-0.3437 -0.102,-0.0731 -0.204,-0.1534 -0.312,-0.2187 -0.0074,-0.0045 -0.02384,0.0044 -0.03125,0 -0.23204,-0.13873 -0.46255,-0.27478 -0.71875,-0.375 0.30153,0.0968 0.59646,0.20414 0.875,0.34375 0.55709,0.27922 1.0601,0.66569 1.5,1.0938 0.21997,0.21403 0.40937,0.44186 0.59375,0.6875 0.18438,0.24564 0.35541,0.50774 0.5,0.78125 0.14012,0.26505 0.27614,0.52473 0.375,0.8125 0.01041,0.03078 0.02133,0.06274 0.03125,0.09375 0.09046,0.27808 0.1388,0.5794 0.1875,0.875 0.053,0.318 0.094,0.634 0.094,0.969 v 72 c 0,3.324 -2.676,6 -6,6 h -72 z"
     id="path4070" />
  <path
     d="M 23.956495,5.3528801 17.94324,17.553973 4.521759,19.558298 l 9.673863,9.499563 -2.265917,13.420364 12.02679,-6.3613 12.025397,6.3613 -2.264523,-13.420364 9.760873,-9.499563 -13.509048,-2.004325 z"
     id="path2"
     style="fill:url(#radialGradient6446);fill-opacity:1;stroke:#000000;stroke-width:1.0436362;stroke-linejoin:round;stroke-miterlimit:4;stroke-dasharray:none;stroke-opacity:0;paint-order:normal;filter:url(#filter1795)"
     inkscape:connector-curvature="0"
     sodipodi:nodetypes="ccccccccccc"
     transform="matrix(1.4973973,0,0,1.4973973,12.062463,10.33408)" />
</svg>
